<svg width="19" height="20" viewBox="0 0 19 20" fill="none" xmlns="http://www.w3.org/2000/svg">
<path d="M15.2226 0.832989L9.72146 0.881747C9.58946 0.883054 9.45902 0.910487 9.33767 0.96246C9.21632 1.01443 9.10646 1.08992 9.01443 1.18456C8.9224 1.27921 8.85002 1.39114 8.80146 1.51389C8.75291 1.63665 8.72914 1.76781 8.73153 1.8998C8.73602 2.16395 8.84485 2.41559 9.03425 2.59976C9.22366 2.78394 9.47825 2.88568 9.74241 2.88276L14.798 2.83317L0.583442 17.4516C0.39855 17.6417 0.296765 17.8975 0.300479 18.1627C0.304193 18.4279 0.413102 18.6808 0.603246 18.8656V18.8656C0.79339 19.0505 1.04919 19.1523 1.31438 19.1486C1.57958 19.1449 1.83243 19.036 2.01732 18.8458L16.2737 4.18443L16.3383 9.29641C16.3396 9.42841 16.367 9.55885 16.419 9.6802C16.4709 9.80155 16.5464 9.91141 16.6411 10.0034C16.7357 10.0955 16.8476 10.1679 16.9704 10.2164C17.0932 10.265 17.2243 10.2887 17.3563 10.2863C17.4883 10.285 17.6188 10.2576 17.7401 10.2056C17.8615 10.1537 17.9713 10.0782 18.0633 9.98352C18.1554 9.88888 18.2278 9.77695 18.2763 9.65419C18.3249 9.53143 18.3486 9.40027 18.3462 9.26828L18.2624 3.78884C18.2508 2.99392 17.9241 2.23613 17.3542 1.6819C16.7842 1.12768 16.0175 0.82235 15.2226 0.832989Z" fill="#3A4F39"/>
</svg>
