<svg width="17" height="13" viewBox="0 0 17 13" fill="none" xmlns="http://www.w3.org/2000/svg">
<path d="M5.83282 10.419L1.91382 6.50005C1.72629 6.31258 1.47198 6.20726 1.20682 6.20726C0.941653 6.20726 0.687345 6.31258 0.499818 6.50005C0.312347 6.68757 0.207031 6.94188 0.207031 7.20705C0.207031 7.47221 0.312347 7.72652 0.499818 7.91405L4.41882 11.833C4.60455 12.0188 4.82506 12.1662 5.06776 12.2668C5.31047 12.3674 5.57061 12.4191 5.83332 12.4191C6.09603 12.4191 6.35617 12.3674 6.59887 12.2668C6.84158 12.1662 7.06209 12.0188 7.24782 11.833L16.4998 2.58105C16.6873 2.39352 16.7926 2.13922 16.7926 1.87405C16.7926 1.60889 16.6873 1.35458 16.4998 1.16705C16.3123 0.979583 16.058 0.874268 15.7928 0.874268C15.5277 0.874268 15.2733 0.979583 15.0858 1.16705L5.83282 10.419Z" fill="#3A4F39"/>
</svg>
