<svg width="13" height="13" viewBox="0 0 13 13" fill="none" xmlns="http://www.w3.org/2000/svg">
<path d="M12.5 0.49994C12.3124 0.312469 12.0581 0.207153 11.793 0.207153C11.5278 0.207153 11.2735 0.312469 11.086 0.49994L6.49997 5.08594L1.91397 0.49994C1.72644 0.312469 1.47213 0.207153 1.20697 0.207153C0.941806 0.207153 0.687498 0.312469 0.49997 0.49994C0.312499 0.687468 0.207184 0.941776 0.207184 1.20694C0.207184 1.4721 0.312499 1.72641 0.49997 1.91394L5.08597 6.49994L0.49997 11.0859C0.312499 11.2735 0.207184 11.5278 0.207184 11.7929C0.207184 12.0581 0.312499 12.3124 0.49997 12.4999C0.687498 12.6874 0.941806 12.7927 1.20697 12.7927C1.47213 12.7927 1.72644 12.6874 1.91397 12.4999L6.49997 7.91394L11.086 12.4999C11.2735 12.6874 11.5278 12.7927 11.793 12.7927C12.0581 12.7927 12.3124 12.6874 12.5 12.4999C12.6874 12.3124 12.7928 12.0581 12.7928 11.7929C12.7928 11.5278 12.6874 11.2735 12.5 11.0859L7.91397 6.49994L12.5 1.91394C12.6874 1.72641 12.7928 1.4721 12.7928 1.20694C12.7928 0.941776 12.6874 0.687468 12.5 0.49994Z" fill="#3A4F39"/>
</svg>
