<svg width="90" height="55" viewBox="0 0 90 55" fill="none" xmlns="http://www.w3.org/2000/svg">
<path d="M7.87517 2.51389H15.5541L21.4293 38.4861H15.7603L14.7295 31.3431V31.4458H8.28747L7.25674 38.4861H2L7.87517 2.51389ZM14.0596 26.5639L11.5343 8.78333H11.4312L8.95744 26.5639H14.0596Z" fill="white"/>
<path d="M32.0672 39C29.3529 39 27.2743 38.2292 25.8313 36.6875C24.4226 35.1458 23.7183 32.9704 23.7183 30.1611V10.8389C23.7183 8.02963 24.4226 5.85417 25.8313 4.3125C27.2743 2.77083 29.3529 2 32.0672 2C34.7814 2 36.8429 2.77083 38.2516 4.3125C39.6946 5.85417 40.4161 8.02963 40.4161 10.8389V14.6417H35.0563V10.4792C35.0563 8.25232 34.1115 7.13889 32.2218 7.13889C30.3321 7.13889 29.3873 8.25232 29.3873 10.4792V30.5722C29.3873 32.7648 30.3321 33.8611 32.2218 33.8611C34.1115 33.8611 35.0563 32.7648 35.0563 30.5722V25.0736H40.4161V30.1611C40.4161 32.9704 39.6946 35.1458 38.2516 36.6875C36.8429 38.2292 34.7814 39 32.0672 39Z" fill="white"/>
<path d="M43.8079 2.51389H51.8991L55.5067 28.2597H55.6098L59.2173 2.51389H67.3086V38.4861H61.9488V11.25H61.8457L57.7228 38.4861H52.9814L48.8585 11.25H48.7554V38.4861H43.8079V2.51389Z" fill="white"/>
<path d="M71.539 2.51389H87V7.65278H77.208V17.1597H84.9901V22.2986H77.208V33.3472H87V38.4861H71.539V2.51389Z" fill="white"/>
<path fill-rule="evenodd" clip-rule="evenodd" d="M6.52848 0.513888H17.6071L22.0714 27.8475V10.8389C22.0714 7.70548 22.8605 4.98524 24.7079 2.96341L24.716 2.95454L24.7243 2.94577C26.6461 0.892507 29.3197 0 32.4203 0C35.5137 0 38.1804 0.889076 40.0729 2.95434C41.0396 3.98987 41.7238 5.21027 42.161 6.57696V0.513888H53.9916L55.9114 14.2148L57.8312 0.513888H69.6617V40.4861H60.3019V37.1437L59.7959 40.4861H51.6145L51.1085 37.1437V40.4861H42.161V34.423C41.7238 35.7897 41.0397 37.0101 40.073 38.0456C38.1805 40.1109 35.5138 41 32.4203 41C29.3197 41 26.6461 40.1075 24.7243 38.0542L24.716 38.0455L24.7079 38.0366C24.2134 37.4954 23.7948 36.9042 23.4467 36.2684L24.1356 40.4861H14.3813L13.3654 33.4458H10.3691L9.3384 40.4861H0L6.52848 0.513888ZM8.64062 31.4458H15.0827V31.3431L16.1134 38.4861H21.7825L15.9073 2.51389H8.22832L2.35315 38.4861H7.60989L8.64062 31.4458ZM42.161 23.0736V16.6417H33.4095V10.4792C33.4095 9.60114 33.2163 9.31557 33.1759 9.268C33.1626 9.25235 33.1444 9.23298 33.0838 9.20919C33.0111 9.18063 32.8553 9.13889 32.5749 9.13889C32.2946 9.13889 32.1388 9.18063 32.0661 9.20919C32.0055 9.23298 31.9873 9.25235 31.974 9.268C31.9336 9.31557 31.7404 9.60114 31.7404 10.4792V30.5722C31.7404 31.427 31.931 31.6948 31.9641 31.7332C31.9749 31.7458 31.9926 31.7656 32.0563 31.7902C32.132 31.8195 32.2913 31.8611 32.5749 31.8611C32.8586 31.8611 33.0179 31.8195 33.0936 31.7902C33.1573 31.7656 33.175 31.7458 33.1858 31.7332C33.2189 31.6948 33.4095 31.427 33.4095 30.5722V23.0736H42.161ZM49.1085 11.25H49.2116L53.3345 38.4861H58.0759L62.1988 11.25H62.3019V38.4861H67.6617V2.51389H59.5705L55.9629 28.2597H55.8598L52.2523 2.51389H44.161V38.4861H49.1085V11.25ZM69.8922 0.513888H89.3531V9.65278H79.5612V15.1597H87.3432V24.2986H79.5612V31.3472H89.3531V40.4861H69.8922V0.513888ZM77.5612 33.3472V22.2986H85.3432V17.1597H77.5612V7.65278H87.3531V2.51389H71.8922V38.4861H87.3531V33.3472H77.5612ZM11.7844 8.78333H11.8874L14.4127 26.5639H9.31059L11.7844 8.78333ZM11.8558 22.7838L11.6081 24.5639H12.1086L11.8558 22.7838ZM26.1844 36.6875C27.6274 38.2292 29.7061 39 32.4203 39C35.1346 39 37.1961 38.2292 38.6047 36.6875C40.0478 35.1458 40.7693 32.9704 40.7693 30.1611V25.0736H35.4095V30.5722C35.4095 32.7648 34.4646 33.8611 32.5749 33.8611C30.6853 33.8611 29.7404 32.7648 29.7404 30.5722V10.4792C29.7404 8.25232 30.6853 7.13889 32.5749 7.13889C34.4646 7.13889 35.4095 8.25232 35.4095 10.4792V14.6417H40.7693V10.8389C40.7693 8.02963 40.0478 5.85417 38.6047 4.3125C37.1961 2.77083 35.1346 2 32.4203 2C29.7061 2 27.6274 2.77083 26.1844 4.3125C24.7757 5.85417 24.0714 8.02963 24.0714 10.8389V30.1611C24.0714 32.9704 24.7757 35.1458 26.1844 36.6875Z" fill="#3A4F39"/>
<path d="M0 51.5332C0 52.541 0.351562 53.3203 1.05469 53.8711C1.75781 54.418 2.65039 54.6914 3.73242 54.6914C4.79883 54.6914 5.61719 54.4785 6.1875 54.0527C6.76172 53.623 7.08398 53.0918 7.1543 52.459L7.16016 52.3887H5.73633L5.73047 52.459C5.70312 52.7168 5.5332 52.9629 5.2207 53.1973C4.9082 53.4316 4.41211 53.5488 3.73242 53.5488C3.05273 53.5488 2.50195 53.3789 2.08008 53.0391C1.6582 52.6992 1.44727 52.2168 1.44727 51.5918V51.0996C1.44727 50.5098 1.6582 50.0371 2.08008 49.6816C2.50586 49.3223 3.05469 49.1426 3.72656 49.1426C4.38672 49.1426 4.87109 49.2598 5.17969 49.4941C5.48828 49.7246 5.67188 49.9688 5.73047 50.2266L5.73633 50.3027H7.16016L7.1543 50.2324C7.04102 49.6035 6.70898 49.0742 6.1582 48.6445C5.60742 48.2148 4.79883 48 3.73242 48C2.65039 48 1.75781 48.2734 1.05469 48.8203C0.351562 49.3672 0 50.1465 0 51.1582V51.5332Z" fill="#3A4F39"/>
<path d="M9.04172 51.5332C9.04172 52.5449 9.39328 53.3242 10.0964 53.8711C10.7995 54.418 11.7058 54.6914 12.8152 54.6914C13.9206 54.6914 14.8249 54.418 15.528 53.8711C16.2351 53.3242 16.5886 52.5449 16.5886 51.5332V51.1582C16.5886 50.1465 16.2351 49.3672 15.528 48.8203C14.8249 48.2734 13.9206 48 12.8152 48C11.7058 48 10.7995 48.2734 10.0964 48.8203C9.39328 49.3672 9.04172 50.1465 9.04172 51.1582V51.5332ZM10.4831 51.5859V51.1113C10.4831 50.4785 10.6941 49.9922 11.1159 49.6523C11.5417 49.3125 12.1081 49.1426 12.8152 49.1426C13.5183 49.1426 14.0827 49.3125 14.5085 49.6523C14.9343 49.9922 15.1472 50.4785 15.1472 51.1113V51.5859C15.1472 52.2148 14.9343 52.6992 14.5085 53.0391C14.0827 53.3789 13.5183 53.5488 12.8152 53.5488C12.1081 53.5488 11.5417 53.3789 11.1159 53.0391C10.6941 52.6992 10.4831 52.2148 10.4831 51.5859Z" fill="#3A4F39"/>
<path d="M18.9916 54.5156H20.4096V52.2246H21.9623C22.935 52.2246 23.687 52.0332 24.2182 51.6504C24.7534 51.2676 25.0209 50.7578 25.0209 50.1211C25.0209 49.5195 24.7534 49.0449 24.2182 48.6973C23.687 48.3496 22.935 48.1758 21.9623 48.1758H18.9916V54.5156ZM20.4096 51.1172V49.2832H21.9448C22.562 49.2832 22.9916 49.3613 23.2338 49.5176C23.4799 49.6738 23.603 49.877 23.603 50.127C23.603 50.4121 23.4799 50.6484 23.2338 50.8359C22.9916 51.0234 22.562 51.1172 21.9448 51.1172H20.4096ZM23.8432 54.5156H25.437L23.3334 51.6328L21.769 51.5918L23.8432 54.5156Z" fill="#3A4F39"/>
<path d="M27.3888 54.5156H28.8068V52.3008H30.4357C31.424 52.3008 32.1818 52.1094 32.7091 51.7266C33.2404 51.3438 33.506 50.8262 33.506 50.1738C33.506 49.5527 33.2404 49.0645 32.7091 48.709C32.1818 48.3535 31.4259 48.1758 30.4416 48.1758H27.3888V54.5156ZM28.8068 51.1934V49.2832H30.3888C31.0216 49.2832 31.463 49.3652 31.713 49.5293C31.967 49.6934 32.0939 49.9082 32.0939 50.1738C32.0939 50.4746 31.967 50.7207 31.713 50.9121C31.463 51.0996 31.0216 51.1934 30.3888 51.1934H28.8068Z" fill="#3A4F39"/>
<path d="M35.2294 51.5332C35.2294 52.5449 35.5809 53.3242 36.2841 53.8711C36.9872 54.418 37.8934 54.6914 39.0028 54.6914C40.1083 54.6914 41.0126 54.418 41.7157 53.8711C42.4227 53.3242 42.7762 52.5449 42.7762 51.5332V51.1582C42.7762 50.1465 42.4227 49.3672 41.7157 48.8203C41.0126 48.2734 40.1083 48 39.0028 48C37.8934 48 36.9872 48.2734 36.2841 48.8203C35.5809 49.3672 35.2294 50.1465 35.2294 51.1582V51.5332ZM36.6708 51.5859V51.1113C36.6708 50.4785 36.8817 49.9922 37.3036 49.6523C37.7294 49.3125 38.2958 49.1426 39.0028 49.1426C39.7059 49.1426 40.2704 49.3125 40.6962 49.6523C41.122 49.9922 41.3348 50.4785 41.3348 51.1113V51.5859C41.3348 52.2148 41.122 52.6992 40.6962 53.0391C40.2704 53.3789 39.7059 53.5488 39.0028 53.5488C38.2958 53.5488 37.7294 53.3789 37.3036 53.0391C36.8817 52.6992 36.6708 52.2148 36.6708 51.5859Z" fill="#3A4F39"/>
<path d="M45.1793 54.5156H46.5973V52.2246H48.15C49.1227 52.2246 49.8746 52.0332 50.4059 51.6504C50.941 51.2676 51.2086 50.7578 51.2086 50.1211C51.2086 49.5195 50.941 49.0449 50.4059 48.6973C49.8746 48.3496 49.1227 48.1758 48.15 48.1758H45.1793V54.5156ZM46.5973 51.1172V49.2832H48.1324C48.7496 49.2832 49.1793 49.3613 49.4215 49.5176C49.6676 49.6738 49.7906 49.877 49.7906 50.127C49.7906 50.4121 49.6676 50.6484 49.4215 50.8359C49.1793 51.0234 48.7496 51.1172 48.1324 51.1172H46.5973ZM50.0309 54.5156H51.6246L49.5211 51.6328L47.9566 51.5918L50.0309 54.5156Z" fill="#3A4F39"/>
<path d="M52.557 54.5156H53.8929L56.178 49.9102C56.2249 49.8086 56.2679 49.7109 56.307 49.6172C56.3499 49.5234 56.387 49.4277 56.4183 49.3301H56.4769C56.512 49.4277 56.5491 49.5234 56.5882 49.6172C56.6273 49.7109 56.6722 49.8086 56.723 49.9102L58.9964 54.5156H60.473L57.2152 48.1465H55.803L52.557 54.5156ZM54.0042 53.1855H58.9554L58.4515 52.084L54.5081 52.0781L54.0042 53.1855Z" fill="#3A4F39"/>
<path d="M60.585 49.2891H63.2979V54.5156H64.7159V49.2891H67.4346V48.1758H60.585V49.2891Z" fill="#3A4F39"/>
<path d="M69.3337 54.5156H70.7459V48.1758H69.3337V54.5156Z" fill="#3A4F39"/>
<path d="M73.1606 51.5332C73.1606 52.5449 73.5122 53.3242 74.2153 53.8711C74.9184 54.418 75.8247 54.6914 76.9341 54.6914C78.0395 54.6914 78.9438 54.418 79.6469 53.8711C80.354 53.3242 80.7075 52.5449 80.7075 51.5332V51.1582C80.7075 50.1465 80.354 49.3672 79.6469 48.8203C78.9438 48.2734 78.0395 48 76.9341 48C75.8247 48 74.9184 48.2734 74.2153 48.8203C73.5122 49.3672 73.1606 50.1465 73.1606 51.1582V51.5332ZM74.602 51.5859V51.1113C74.602 50.4785 74.813 49.9922 75.2348 49.6523C75.6606 49.3125 76.227 49.1426 76.9341 49.1426C77.6372 49.1426 78.2016 49.3125 78.6274 49.6523C79.0532 49.9922 79.2661 50.4785 79.2661 51.1113V51.5859C79.2661 52.2148 79.0532 52.6992 78.6274 53.0391C78.2016 53.3789 77.6372 53.5488 76.9341 53.5488C76.227 53.5488 75.6606 53.3789 75.2348 53.0391C74.813 52.6992 74.602 52.2148 74.602 51.5859Z" fill="#3A4F39"/>
<path d="M83.1105 54.5156H84.4055V50.5371C84.4055 50.4473 84.3996 50.3496 84.3879 50.2441C84.3762 50.1387 84.3625 50.041 84.3469 49.9512H84.4113C84.4582 50.0293 84.5109 50.1113 84.5695 50.1973C84.632 50.2832 84.7004 50.3691 84.7746 50.4551L88.3781 54.5156H89.9016V48.1758H88.6066V52.1367C88.6066 52.2305 88.6105 52.3379 88.6184 52.459C88.6301 52.5762 88.6457 52.6816 88.6652 52.7754H88.6066C88.552 52.6934 88.4934 52.6055 88.4309 52.5117C88.3684 52.418 88.3 52.3281 88.2258 52.2422L84.6223 48.1758H83.1105V54.5156Z" fill="#3A4F39"/>
</svg>
